# xmcd CD database file
#
# Track frame offsets:
#	150
#	16381
#	36400
#	50479
#	66617
#	82238
#	98616
#	114045
#	132539
#	148166
#	162942
#	178133
#	194580
#	209313
#
# Disc length: 3020 seconds
#
# Revision: 1
# Processed by: cddbd v1.5.1PL0 Copyright (c) Steve Scherf et al.
# Submitted via: Feurio! 1.67 - http://www.feurio.com
#
DISCID=d50bca0e
DTITLE=Slow Horses - Cross That Line
DYEAR=2004
DGENRE=Country
TTITLE0=It´s Not Raining Every Day
TTITLE1=Beautiful Life
TTITLE2=I Can´t Look At That
TTITLE3=Love In Your Kiss
TTITLE4=Better Days
TTITLE5=The Treasure
TTITLE6=Gone Like The Roses
TTITLE7=Abilene
TTITLE8=I Wanna Know
TTITLE9=Off-Road
TTITLE10=7 Little Prophets
TTITLE11=Late Again
TTITLE12=Stop Barking Up The Wrong Tree
TTITLE13=The One
EXTD=
EXTT0=
EXTT1=
EXTT2=
EXTT3=
EXTT4=
EXTT5=
EXTT6=
EXTT7=
EXTT8=
EXTT9=
EXTT10=
EXTT11=
EXTT12=
EXTT13=
PLAYORDER=
